<svg width="17" height="17" viewBox="0 0 17 17" fill="none" xmlns="http://www.w3.org/2000/svg">
<path d="M0 1.90234C0 2.45234 0.45 2.90234 1 2.90234L16 2.90234C16.55 2.90234 17 2.45234 17 1.90234C17 1.35234 16.55 0.902344 16 0.902344L1 0.902344C0.45 0.902344 0 1.35234 0 1.90234Z" fill="#F46700"/>
<path d="M4 8.90234C4 9.45234 4.45 9.90234 5 9.90234H16C16.55 9.90234 17 9.45234 17 8.90234C17 8.35234 16.55 7.90234 16 7.90234L5 7.90234C4.45 7.90234 4 8.35234 4 8.90234Z" fill="#F46700"/>
<path d="M9 16.9023C8.45 16.9023 8 16.4523 8 15.9023C8 15.3523 8.45 14.9023 9 14.9023H16C16.55 14.9023 17 15.3523 17 15.9023C17 16.4523 16.55 16.9023 16 16.9023H9Z" fill="#F46700"/>
</svg>
